<?xml version="1.0" encoding="utf-8"?>
<!-- Generator: Adobe Illustrator 27.0.1, SVG Export Plug-In . SVG Version: 6.00 Build 0)  -->
<svg version="1.1" id="Layer_1" xmlns="http://www.w3.org/2000/svg" xmlns:xlink="http://www.w3.org/1999/xlink" x="0px" y="0px"
	 viewBox="0 0 1366 768" style="enable-background:new 0 0 1366 768;" xml:space="preserve">
<style type="text/css">
	.st0{fill:#E95B1C;}
	.st1{fill:#575756;}
	.st2{fill:#FFFFFF;}
</style>
<g>
	<g>
		<path class="st0" d="M195.71,308.96H256c16.29,0,28.28,4.49,36.51,12.36c8.61,8.05,13.48,19.47,13.48,32.95
			c0,25.65-17.79,43.82-45.32,43.82h-31.27v44.75h-33.7V308.96z M253.94,371.88c11.98,0,18.72-7.12,18.72-17.79
			s-6.93-17.23-18.72-17.23h-24.53v35.02H253.94z"/>
		<path class="st0" d="M311.63,394.72c0-28.65,20.04-50.56,49.24-50.56c13.67,0,24.53,4.49,32.77,11.98
			c11.42,10.49,17.04,27.15,16.85,46.62h-68.91c1.87,12.92,8.99,20.97,21.54,20.97c8.05,0,13.29-3.56,15.92-9.55h29.77
			c-2.06,8.61-7.68,16.85-16.1,22.66c-8.05,5.62-17.79,8.8-29.96,8.8C331.1,445.65,311.63,423.74,311.63,394.72z M379.6,384.61
			c-1.12-11.42-8.24-18.72-18.17-18.72c-11.61,0-17.6,7.3-19.66,18.72H379.6z"/>
		<path class="st0" d="M424.55,346.97h29.21v14.98h0.56c6.74-11.42,14.6-16.48,26.21-16.48c2.81,0,4.68,0.19,5.99,0.75v26.21h-0.75
			c-18.72-2.62-30.71,6.55-30.71,27.34v43.07h-30.52V346.97z"/>
		<path class="st0" d="M509.01,366.45h-12.36v-19.47h12.36v-6.93c0-9.92,2.81-17.23,7.86-22.28c8.24-8.05,24.16-9.92,40.63-8.24
			v21.53c-11.61-0.38-17.98,0.56-17.98,11.23v4.68h17.98v19.47h-17.98v76.4h-30.52V366.45z"/>
		<path class="st1" d="M563.69,416.07c0-21.16,16.85-27.53,36.7-30.15c17.97-2.25,24.34-4.12,24.34-10.67
			c0-6.18-3.93-10.3-13.11-10.3c-9.74,0-14.6,4.31-15.54,12.36H568c0.75-17.79,14.42-32.96,43.44-32.96
			c14.42,0,24.16,2.62,31.08,7.87c8.24,5.99,12.17,15.35,12.17,27.34v48.31c0,7.68,0.75,11.98,3.37,13.67v1.31h-29.58
			c-1.5-2.06-2.44-5.81-3.19-10.67h-0.37c-5.62,8.05-14.05,13.11-28.46,13.11C577.36,445.28,563.69,434.98,563.69,416.07z
			 M625.48,408.58v-11.42c-3.93,2.06-9.55,3.56-15.73,5.06c-11.8,2.62-16.66,5.62-16.66,12.92c0,7.68,5.62,10.67,13.11,10.67
			C617.62,425.8,625.48,418.87,625.48,408.58z"/>
		<path class="st1" d="M673.24,346.97h29.4v13.11h0.56c7.11-10.3,16.29-15.92,29.58-15.92c20.97,0,33.33,14.98,33.33,36.33v62.35
			h-30.52v-56.17c0-10.11-5.06-17.04-14.98-17.04c-10.11,0-16.85,8.43-16.85,20.22v52.99h-30.52V346.97z"/>
		<path class="st1" d="M779.23,416.07c0-21.16,16.85-27.53,36.7-30.15c17.97-2.25,24.34-4.12,24.34-10.67
			c0-6.18-3.93-10.3-13.11-10.3c-9.74,0-14.6,4.31-15.54,12.36h-28.08c0.75-17.79,14.42-32.96,43.44-32.96
			c14.42,0,24.16,2.62,31.08,7.87c8.24,5.99,12.17,15.35,12.17,27.34v48.31c0,7.68,0.75,11.98,3.37,13.67v1.31h-29.58
			c-1.5-2.06-2.44-5.81-3.19-10.67h-0.37c-5.62,8.05-14.05,13.11-28.46,13.11C792.9,445.28,779.23,434.98,779.23,416.07z
			 M841.02,408.58v-11.42c-3.93,2.06-9.55,3.56-15.73,5.06c-11.8,2.62-16.66,5.62-16.66,12.92c0,7.68,5.62,10.67,13.11,10.67
			C833.16,425.8,841.02,418.87,841.02,408.58z"/>
		<path class="st1" d="M888.97,308.96h30.9v133.88h-30.9V308.96z"/>
		<path class="st1" d="M941.59,450.71h10.48c8.99,0,12.55-3.56,12.55-10.11c0-4.12-1.87-9.74-5.81-19.85l-28.27-73.78h32.21
			l12.92,40.82c3,9.36,5.99,22.1,5.99,22.1h0.38c0,0,2.62-12.73,5.62-22.1l12.55-40.82h30.52l-33.14,97.18
			c-7.68,22.47-16.85,30.33-36.14,30.33h-19.85V450.71z"/>
		<path class="st1" d="M1052.45,417.56v-51.49h-12.73v-19.1h12.73v-30.33h29.77v30.33h17.41v19.1h-17.41v44.94
			c0,7.49,4.12,9.36,10.67,9.36c2.62,0,5.62-0.19,6.74-0.19v22.28c-2.62,0.75-8.43,1.5-16.66,1.5
			C1065.18,443.97,1052.45,438.16,1052.45,417.56z"/>
		<path class="st1" d="M1114.43,308.96h30.52v24.72h-30.52V308.96z M1114.43,346.97h30.52v95.87h-30.52V346.97z"/>
		<path class="st1" d="M1159,395.09c0-28.84,19.85-50.74,50.18-50.74c26.03,0,42.69,15.17,45.5,36.7h-29.4
			c-1.87-8.61-7.12-14.23-15.73-14.23c-13.11,0-19.66,10.86-19.66,28.27c0,17.04,6.55,27.9,19.66,27.9
			c9.55,0,15.35-5.62,16.67-16.48h29.21c-0.75,22.1-18.35,39.32-45.5,39.32C1179.04,445.84,1159,423.93,1159,395.09z"/>
		<path class="st1" d="M1264.06,411.76h28.84c1.12,9.55,7.49,14.23,17.6,14.23c9.18,0,14.98-3.37,14.98-9.55
			c0-8.61-11.61-9.55-24.34-11.8c-16.66-2.81-34.45-7.3-34.45-29.77c0-20.22,18.72-30.71,41.38-30.71
			c27.15,0,41.76,11.8,43.25,30.71h-28.08c-1.12-8.61-6.93-11.23-15.35-11.23c-7.49,0-13.3,2.81-13.3,8.8
			c0,6.74,10.86,7.68,23.03,9.92c16.85,2.81,36.7,7.12,36.7,31.64c0,20.97-18.54,31.83-43.63,31.83
			C1282.6,445.84,1264.99,432.92,1264.06,411.76z"/>
	</g>
	<rect x="23.41" y="308.94" class="st0" width="133.19" height="133.19"/>
	<path class="st2" d="M149.46,316.08v55.42H131v-23.9l-34.53,34.53l-13.06-13.06l34.53-34.53h-23.9v-18.47H149.46z"/>
</g>
</svg>
