<?xml version="1.0" encoding="utf-8"?>
<!-- Generator: Adobe Illustrator 27.0.1, SVG Export Plug-In . SVG Version: 6.00 Build 0)  -->
<svg version="1.1" id="Layer_1" xmlns="http://www.w3.org/2000/svg" xmlns:xlink="http://www.w3.org/1999/xlink" x="0px" y="0px"
	 viewBox="0 0 1366 768" style="enable-background:new 0 0 1366 768;" xml:space="preserve">
<style type="text/css">
	.st0{fill:#E95B1C;}
</style>
<g>
	<path class="st0" d="M337.36,283.57c-8.61-18.07-20.79-34.55-35.95-48.19c-15.14-13.65-33.22-24.42-52.93-31.38
		c-19.71-6.95-41-10.06-62.29-8.89c-21.3,1.15-42.55,6.61-62.25,16.08c-19.68,9.49-37.65,22.91-52.46,39.55
		c-14.82,16.61-26.47,36.39-33.94,57.88c-7.47,21.49-10.75,44.68-9.37,67.85c1.35,23.17,7.41,46.27,17.77,67.58
		c0.74,1.52,0.11,3.35-1.4,4.09c-1.42,0.69-3.13,0.17-3.95-1.14c-12.82-20.83-21.68-44.42-25.59-69.06
		c-3.94-24.64-2.97-50.28,2.94-74.98c5.92-24.7,16.79-48.47,32.02-69.41c15.2-20.96,34.8-39.02,57.24-52.74
		c22.44-13.71,47.87-23.17,74.39-27.28c26.51-4.15,54.04-3.01,80.54,3.42c26.49,6.44,51.94,18.17,74.35,34.58
		c22.43,16.37,41.73,37.46,56.34,61.51l0.27,0.44c9.09,14.96,4.32,34.46-10.64,43.55c-14.96,9.09-34.46,4.32-43.55-10.64
		C338.32,285.48,337.81,284.51,337.36,283.57z"/>
	<g>
		<path d="M179.42,324.04c-9-4.04-19.72-6.06-32.17-6.06H87.09v138.99h32.16v-38.32h28c12.44,0,23.16-2.02,32.17-6.06
			c9-4.04,15.95-9.83,20.85-17.37c4.9-7.54,7.35-16.48,7.35-26.8c0-10.46-2.45-19.46-7.35-27
			C195.37,333.87,188.42,328.08,179.42,324.04z M167.7,386.09c-4.9,4.24-12.31,6.35-22.24,6.35h-26.21V344.2h26.21
			c9.93,0,17.34,2.12,22.24,6.35c4.9,4.24,7.35,10.19,7.35,17.87C175.05,375.97,172.6,381.86,167.7,386.09z"/>
		<path d="M297.46,355.22c-8.41-4.43-17.84-6.65-28.29-6.65c-10.85,0-20.58,2.35-29.19,7.05c-8.61,4.7-15.39,11.19-20.35,19.46
			c-4.96,8.27-7.45,17.77-7.45,28.49c0,10.59,2.51,20.02,7.54,28.29c5.03,8.27,12.14,14.79,21.34,19.56
			c9.2,4.77,19.89,7.15,32.07,7.15c9.66,0,18.2-1.49,25.61-4.47c7.41-2.98,13.57-7.25,18.47-12.81l-16.48-17.87
			c-3.58,3.44-7.52,6.02-11.81,7.74c-4.3,1.72-9.3,2.58-14.99,2.58c-6.35,0-11.88-1.16-16.58-3.48c-4.7-2.31-8.34-5.69-10.92-10.13
			c-1.4-2.4-2.39-5.03-3.03-7.84h80.76c0.13-1.32,0.26-2.74,0.4-4.27c0.13-1.52,0.2-2.88,0.2-4.07c0-11.52-2.45-21.41-7.35-29.68
			C312.51,366.01,305.86,359.65,297.46,355.22z M255.36,375.47c4.04-2.31,8.7-3.47,14-3.47c5.29,0,9.93,1.16,13.9,3.47
			c3.97,2.32,7.08,5.53,9.33,9.63c1.49,2.72,2.44,5.78,2.94,9.13h-52.5c0.52-3.31,1.45-6.35,2.9-9.03
			C248.18,381.03,251.32,377.79,255.36,375.47z"/>
		<path d="M367.05,364.19v-14.03h-29.58v106.82h30.97v-50.43c0-10.19,2.61-17.7,7.84-22.54c5.23-4.83,12.08-7.25,20.55-7.25
			c1.19,0,2.31,0.03,3.37,0.1c1.06,0.07,2.25,0.17,3.57,0.3v-28.59c-10.06,0-18.6,1.96-25.61,5.86
			C373.67,356.93,369.97,360.19,367.05,364.19z"/>
		<path d="M445.28,347.97c0-5.16,1.22-9.03,3.67-11.62c2.45-2.58,5.92-3.87,10.42-3.87c2.38,0,4.67,0.33,6.85,0.99
			c2.18,0.66,4.07,1.59,5.66,2.78l8.14-22.44c-2.91-1.99-6.45-3.44-10.62-4.37c-4.17-0.92-8.51-1.39-13.01-1.39
			c-13.24,0-23.43,3.61-30.58,10.82c-7.15,7.22-10.72,16.85-10.72,28.89v109.2h30.97v-80.61h26.61v-23.83h-27.4V347.97z"/>
		<path d="M561.63,361.33c-2.46-2.7-5.23-4.98-8.34-6.81c-6.75-3.97-14.63-5.96-23.63-5.96c-10.06,0-19.13,2.25-27.2,6.75
			c-8.08,4.5-14.46,10.86-19.16,19.06c-4.7,8.21-7.05,17.94-7.05,29.19c0,11.12,2.35,20.78,7.05,28.99
			c4.7,8.21,11.08,14.59,19.16,19.16c8.07,4.57,17.14,6.85,27.2,6.85c9.4,0,17.44-1.99,24.12-5.96c3.51-2.09,6.58-4.76,9.23-8v12.37
			h29.58V350.15h-30.97V361.33z M558.55,419.35c-2.45,4.44-5.73,7.84-9.83,10.22c-4.1,2.38-8.67,3.57-13.7,3.57
			c-5.16,0-9.8-1.19-13.9-3.57c-4.1-2.38-7.38-5.79-9.83-10.22c-2.45-4.43-3.67-9.7-3.67-15.78c0-6.22,1.22-11.52,3.67-15.88
			c2.45-4.37,5.72-7.74,9.83-10.13c4.1-2.38,8.74-3.57,13.9-3.57c5.03,0,9.59,1.19,13.7,3.57c4.1,2.38,7.38,5.76,9.83,10.13
			c2.45,4.37,3.67,9.66,3.67,15.88C562.22,409.65,561,414.92,558.55,419.35z"/>
		<path d="M692.97,353.63c-6.69-3.38-14.26-5.06-22.73-5.06c-9.13,0-17.27,1.92-24.42,5.76c-4.22,2.27-7.85,5.13-10.92,8.55v-12.72
			h-29.58v106.82h30.97v-52.81c0-6.62,1.09-12.04,3.28-16.28c2.18-4.24,5.23-7.38,9.13-9.43c3.9-2.05,8.31-3.08,13.2-3.08
			c6.88,0,12.21,2.05,15.98,6.16c3.77,4.1,5.66,10.46,5.66,19.06v56.39h30.97v-61.15c0-10.85-1.92-19.76-5.76-26.7
			C704.92,362.17,699.65,357,692.97,353.63z"/>
		<path d="M812,361.33c-2.46-2.7-5.23-4.98-8.34-6.81c-6.75-3.97-14.63-5.96-23.63-5.96c-10.06,0-19.13,2.25-27.2,6.75
			c-8.08,4.5-14.46,10.86-19.16,19.06c-4.7,8.21-7.05,17.94-7.05,29.19c0,11.12,2.35,20.78,7.05,28.99
			c4.7,8.21,11.08,14.59,19.16,19.16c8.07,4.57,17.14,6.85,27.2,6.85c9.4,0,17.44-1.99,24.12-5.96c3.51-2.09,6.58-4.76,9.23-8v12.37
			h29.58V350.15H812V361.33z M808.93,419.35c-2.45,4.44-5.73,7.84-9.83,10.22c-4.1,2.38-8.67,3.57-13.7,3.57
			c-5.16,0-9.8-1.19-13.9-3.57c-4.1-2.38-7.38-5.79-9.83-10.22c-2.45-4.43-3.67-9.7-3.67-15.78c0-6.22,1.22-11.52,3.67-15.88
			c2.45-4.37,5.72-7.74,9.83-10.13c4.1-2.38,8.74-3.57,13.9-3.57c5.03,0,9.59,1.19,13.7,3.57c4.1,2.38,7.38,5.76,9.83,10.13
			c2.45,4.37,3.67,9.66,3.67,15.88C812.6,409.65,811.37,414.92,808.93,419.35z"/>
		<path d="M908.7,431.96c-0.93,0.53-2.18,0.99-3.77,1.39c-1.59,0.4-3.25,0.6-4.96,0.6c-4.24,0-7.51-1.22-9.83-3.67
			c-2.32-2.45-3.47-5.92-3.47-10.42V309.65h-30.97v111.98c0,11.91,3.38,21.05,10.13,27.4c6.75,6.35,16.15,9.53,28.19,9.53
			c2.65,0,5.33-0.23,8.04-0.69c2.71-0.47,5.39-1.09,8.04-1.89L908.7,431.96z"/>
		<path d="M967.47,422.7l-29.99-72.55h-31.97l46.25,107.71l-0.38,0.9c-2.12,4.77-4.47,8.17-7.05,10.23
			c-2.58,2.05-6.06,3.08-10.42,3.08c-3.05,0-6.12-0.6-9.23-1.79c-3.11-1.19-5.86-2.85-8.24-4.96l-11.32,22.04
			c3.44,3.04,7.87,5.43,13.3,7.15c5.43,1.72,10.92,2.58,16.48,2.58c6.48,0,12.41-0.99,17.77-2.98c5.36-1.99,10.26-5.43,14.69-10.33
			c4.43-4.9,8.37-11.65,11.81-20.25l48.25-113.37h-29.78L967.47,422.7z"/>
		<path d="M1079.65,433.94c-4.1,0-7.32-1.22-9.63-3.67c-2.32-2.45-3.47-5.92-3.47-10.42v-43.48h26.41v-23.83h-26.41v-26.01h-30.97
			v93.72c0,12.71,3.47,22.27,10.42,28.69c6.95,6.42,16.78,9.63,29.49,9.63c4.63,0,9.16-0.57,13.6-1.69
			c4.43-1.12,8.24-2.81,11.42-5.06l-8.14-21.84C1088.78,432.62,1084.54,433.94,1079.65,433.94z"/>
		<path d="M1139.41,305.38c-3.57-3.11-8.21-4.67-13.9-4.67c-5.69,0-10.32,1.66-13.9,4.96c-3.57,3.31-5.36,7.41-5.36,12.31
			c0,4.9,1.79,9,5.36,12.31c3.57,3.31,8.21,4.96,13.9,4.96c5.82,0,10.49-1.69,14-5.06c3.51-3.37,5.26-7.64,5.26-12.81
			C1144.77,312.5,1142.99,308.49,1139.41,305.38z"/>
		<rect x="1110.03" y="350.15" width="30.97" height="106.82"/>
		<path d="M1233.33,418.45c-2.78,5.16-6.25,8.9-10.42,11.22c-4.17,2.32-8.71,3.47-13.6,3.47c-5.3,0-10.06-1.19-14.3-3.57
			c-4.24-2.38-7.58-5.76-10.03-10.13c-2.45-4.37-3.67-9.66-3.67-15.88c0-6.22,1.22-11.52,3.67-15.88
			c2.45-4.37,5.79-7.74,10.03-10.13c4.23-2.38,9-3.57,14.3-3.57c4.9,0,9.43,1.19,13.6,3.57c4.17,2.38,7.64,6.09,10.42,11.12
			l24.02-12.91c-3.97-8.74-10.13-15.45-18.47-20.15c-8.34-4.7-18.14-7.05-29.39-7.05c-11.52,0-21.78,2.35-30.78,7.05
			c-9,4.7-16.05,11.19-21.15,19.46c-5.1,8.27-7.64,17.77-7.64,28.49c0,10.59,2.55,20.05,7.64,28.39
			c5.09,8.34,12.14,14.86,21.15,19.56c9,4.7,19.26,7.05,30.78,7.05c11.25,0,21.05-2.35,29.39-7.05c8.34-4.7,14.49-11.35,18.47-19.95
			L1233.33,418.45z"/>
		<path d="M1350.08,409.82c-2.38-3.77-5.46-6.75-9.23-8.93c-3.77-2.18-7.98-3.87-12.61-5.06c-4.63-1.19-9.23-2.08-13.8-2.68
			c-4.57-0.6-8.77-1.29-12.61-2.08c-3.84-0.79-6.92-1.85-9.23-3.18c-2.32-1.32-3.48-3.31-3.48-5.96c0-2.91,1.59-5.29,4.77-7.15
			c3.18-1.85,8.21-2.78,15.09-2.78c4.9,0,9.96,0.56,15.19,1.69c5.23,1.13,10.42,3.21,15.59,6.25l10.32-22.04
			c-5.03-3.04-11.32-5.36-18.86-6.95c-7.55-1.59-14.96-2.38-22.24-2.38c-10.32,0-19.19,1.49-26.61,4.47
			c-7.41,2.98-13.07,7.05-16.98,12.21c-3.91,5.16-5.86,11.12-5.86,17.87c0,6.09,1.16,11.05,3.47,14.89
			c2.31,3.84,5.39,6.88,9.23,9.13c3.84,2.25,8.07,3.94,12.71,5.06c4.63,1.13,9.23,2.02,13.8,2.68c4.57,0.66,8.77,1.32,12.61,1.99
			c3.84,0.66,6.92,1.62,9.23,2.88c2.31,1.26,3.47,3.15,3.47,5.66c0,3.05-1.49,5.43-4.47,7.15c-2.98,1.72-8.04,2.58-15.19,2.58
			c-6.49,0-13.07-0.96-19.76-2.88c-6.69-1.92-12.48-4.4-17.37-7.45l-10.32,22.24c4.9,3.31,11.55,6.06,19.95,8.24
			c8.4,2.18,17.17,3.28,26.31,3.28c10.72,0,19.82-1.46,27.3-4.37c7.48-2.91,13.2-6.91,17.17-12.01c3.97-5.09,5.96-10.95,5.96-17.57
			C1353.65,418.52,1352.46,413.59,1350.08,409.82z"/>
	</g>
</g>
</svg>
