<svg width="91" height="20" viewBox="0 0 91 20" fill="none" xmlns="http://www.w3.org/2000/svg">
<path d="M32.6786 10.9787H22.4867C22.957 12.8414 24.5057 14.2463 26.5246 14.2463C27.6597 14.2463 28.7786 13.7727 29.5246 12.9519L31.9895 13.0071C30.903 15.0118 28.8354 16.2983 26.4354 16.2983C22.9327 16.2983 20.1759 13.3386 20.1759 9.99211C20.1759 6.53512 22.884 3.70166 26.484 3.70166C29.9705 3.70166 32.7516 6.49566 32.7516 9.86583C32.7435 10.2289 32.7192 10.6235 32.6786 10.9787ZM26.4516 5.74586C24.457 5.74586 22.6084 7.27703 22.4786 9.2502H30.4246C30.303 7.29282 28.4624 5.74586 26.4516 5.74586ZM42.8867 15.9984V9.49487C42.8867 7.46646 42.2624 5.75375 39.8138 5.75375C37.5516 5.75375 36.5705 7.45856 36.5705 9.47908V16.0063H34.2678V4.02526H36.4246V5.29598H36.4651C37.357 4.15154 38.6462 3.69377 40.0651 3.69377C41.8165 3.69377 43.4624 4.36464 44.4192 5.83268C45.0111 6.74033 45.1976 7.83741 45.1976 8.90292V15.9984H42.8867ZM57.4732 15.9984V14.2936H57.4327C56.4111 15.6827 54.7894 16.2983 53.0786 16.2983C49.3895 16.2983 46.6813 13.6227 46.6813 10.0552C46.6813 6.46409 49.3489 3.69377 53.0786 3.69377C54.6273 3.69377 56.2732 4.26993 57.2543 5.4854H57.2949V0H59.5976V15.9984H57.4732ZM53.2084 5.74586C50.7678 5.74586 48.9922 7.68745 48.9922 10.0316C48.9922 12.2731 50.8408 14.2541 53.1922 14.2541C55.5922 14.2541 57.4732 12.352 57.4732 10.0316C57.4732 7.6322 55.7219 5.74586 53.2084 5.74586ZM66.2867 20H63.8949L65.6867 15.7616L60.7813 4.02526H63.2705L66.8949 13.3228L70.6003 4.02526H73.0894L66.2867 20ZM79.657 16.2983C76.0327 16.2983 73.0165 13.4649 73.0165 9.92107C73.0165 6.39305 76.1057 3.69377 79.657 3.69377C83.257 3.69377 86.2976 6.41673 86.2976 9.96054C86.2976 13.3781 83.3867 16.2983 79.657 16.2983ZM79.657 5.74586C77.257 5.74586 75.3192 7.64799 75.3192 9.98421C75.3192 12.3204 77.2489 14.2463 79.657 14.2463C82.0813 14.2463 83.9949 12.3047 83.9949 9.96843C83.9867 7.6322 82.0489 5.74586 79.657 5.74586ZM88.1786 15.9984V0H90.4976V15.9984H88.1786ZM2.78404 13.6385C2.88134 14.0174 3.01107 14.3331 3.15702 14.5699C3.30296 14.8066 3.49756 15.0118 3.71648 15.2092C4.44621 15.8327 5.37053 16.1484 6.46513 16.1484C7.55161 16.1484 8.56513 15.8879 9.48945 15.3907V13.236C8.53269 13.7806 7.61648 14.0647 6.75702 14.0647C5.58945 14.0647 4.98134 13.3702 4.98134 11.9968V6.1326H8.85702V4.05683H5.00567V0.213102H2.71918V4.04893H0.497559V6.1247H2.62188V11.4444C2.62188 12.5257 2.67864 13.2597 2.78404 13.6385ZM16.7543 6.02999C17.4678 6.02999 18.2543 6.40884 19.0895 7.17443L20.3462 5.14602C19.3246 4.23836 18.0922 3.82005 17.3705 3.82005H17.2084C16.3813 3.82005 14.9949 3.82005 13.8759 5.5959L13.8354 5.66693L13.8435 4.05683H11.4516V15.9274H13.8435V9.72376C13.8435 8.72928 14.1273 7.86109 14.703 7.12707C15.2786 6.40095 15.9678 6.02999 16.7543 6.02999Z" fill="#231F20"/>
</svg>
