<svg width="746" height="746" viewBox="0 0 746 746" fill="none" xmlns="http://www.w3.org/2000/svg">
<path fill-rule="evenodd" clip-rule="evenodd" d="M374.147 644.669C336.314 623.889 316.895 581.56 316.299 518.836V444.546H445.413C466.248 444.546 483.282 426.96 483.282 405.488V397.714C483.282 376.203 466.248 358.618 445.413 358.618H316.299V289.991C316.299 266.056 297.514 246.7 274.366 246.7C251.22 246.7 232.471 266.095 232.471 289.953V515.95C232.471 565.514 241.752 608.535 260.128 643.86C277.609 677.454 302.769 703.429 334.861 721.053C364.68 737.408 399.38 745.796 436.654 745.796C447.016 745.796 457.6 745.142 468.336 743.834C512.057 738.484 554.922 722.4 589.212 698.541L590.219 697.811C687.688 625.582 745.833 508.601 745.833 384.923C745.833 172.663 578.515 -0.0384743 372.879 6.42938e-06C167.281 6.42938e-06 0 172.701 0 384.923C0 497.941 47.8212 604.802 131.276 678.108C148.869 693.616 175.333 691.423 190.354 673.222C205.375 655.02 203.249 627.699 185.619 612.191C120.951 555.354 83.8644 472.505 83.8644 384.923C83.8644 220.418 213.5 86.5047 372.879 86.5047C532.259 86.5047 661.969 220.38 661.969 384.962C661.969 480.625 617.056 571.132 541.801 627.16C498.862 656.828 425.77 672.991 374.147 644.669Z" fill="white"/>
</svg>
