<svg width="21" height="21" viewBox="0 0 21 21" fill="none" xmlns="http://www.w3.org/2000/svg">
<path d="M19.8252 17.2422C19.3235 16.1195 18.5955 15.0997 17.6816 14.2397C16.7705 13.3771 15.6913 12.6894 14.5035 12.2146C14.4928 12.2095 14.4822 12.207 14.4715 12.202C16.1284 11.0713 17.2056 9.22964 17.2056 7.15175C17.2056 3.70954 14.2535 0.920593 10.6099 0.920593C6.96627 0.920593 4.01416 3.70954 4.01416 7.15175C4.01416 9.22964 5.09128 11.0713 6.74819 12.2045C6.73755 12.2095 6.72691 12.2121 6.71627 12.2171C5.52479 12.6919 4.45565 13.3729 3.5381 14.2422C2.6251 15.1029 1.89717 16.1225 1.3945 17.2447C0.900678 18.3433 0.63435 19.5212 0.60993 20.7146C0.60922 20.7414 0.614199 20.7681 0.624573 20.793C0.634947 20.818 0.650507 20.8408 0.670335 20.86C0.690163 20.8792 0.713858 20.8944 0.740025 20.9048C0.766192 20.9152 0.7943 20.9206 0.822694 20.9206H2.41843C2.53545 20.9206 2.62853 20.8327 2.63119 20.7246C2.68438 18.7849 3.50885 16.9683 4.96628 15.5914C6.47425 14.1668 8.4769 13.3829 10.6099 13.3829C12.7428 13.3829 14.7455 14.1668 16.2534 15.5914C17.7109 16.9683 18.5353 18.7849 18.5885 20.7246C18.5912 20.8352 18.6843 20.9206 18.8013 20.9206H20.397C20.4254 20.9206 20.4535 20.9152 20.4797 20.9048C20.5059 20.8944 20.5296 20.8792 20.5494 20.86C20.5692 20.8408 20.5848 20.818 20.5952 20.793C20.6055 20.7681 20.6105 20.7414 20.6098 20.7146C20.5832 19.5136 20.3199 18.3452 19.8252 17.2422V17.2422ZM10.6099 11.4734C9.38913 11.4734 8.2402 11.0236 7.37584 10.207C6.51149 9.39044 6.03543 8.30502 6.03543 7.15175C6.03543 5.99848 6.51149 4.91306 7.37584 4.09647C8.2402 3.27989 9.38913 2.83014 10.6099 2.83014C11.8306 2.83014 12.9795 3.27989 13.8439 4.09647C14.7082 4.91306 15.1843 5.99848 15.1843 7.15175C15.1843 8.30502 14.7082 9.39044 13.8439 10.207C12.9795 11.0236 11.8306 11.4734 10.6099 11.4734Z" fill="black"/>
</svg>
